<svg width="560" height="560" viewBox="0 0 560 560" fill="none" xmlns="http://www.w3.org/2000/svg">
  <defs>
    <linearGradient id="ballFill" x1="168" y1="80" x2="360" y2="268" gradientUnits="userSpaceOnUse">
      <stop stop-color="#FFC74A"/>
      <stop offset="1" stop-color="#F39200"/>
    </linearGradient>
    <radialGradient id="glow" cx="0" cy="0" r="1" gradientUnits="userSpaceOnUse" gradientTransform="translate(280 168) rotate(90) scale(220 220)">
      <stop stop-color="#A30E1F" stop-opacity="0.38"/>
      <stop offset="1" stop-color="#A30E1F" stop-opacity="0"/>
    </radialGradient>
  </defs>

  <rect width="560" height="560" rx="42" fill="#690815"/>
  <rect width="560" height="560" rx="42" fill="url(#glow)"/>

  <g opacity="0.08">
    <circle cx="498" cy="82" r="138" stroke="#2B030B" stroke-width="24"/>
    <path d="M395 36C449 62 481 123 479 184" stroke="#2B030B" stroke-width="18" stroke-linecap="round"/>
    <path d="M436 7C475 31 501 72 508 118" stroke="#2B030B" stroke-width="18" stroke-linecap="round"/>
    <path d="M455 148L548 188" stroke="#2B030B" stroke-width="18" stroke-linecap="round"/>
    <path d="M36 360C63 348 92 345 121 351C150 357 177 373 198 397" stroke="#2B030B" stroke-width="16" stroke-linecap="round"/>
    <path d="M97 330L110 430" stroke="#2B030B" stroke-width="16" stroke-linecap="round"/>
  </g>

  <g transform="translate(0 6)">
    <circle cx="280" cy="132" r="76" fill="url(#ballFill)"/>
    <path d="M213 126C247 130 282 128 347 108" stroke="#742216" stroke-width="7" stroke-linecap="round"/>
    <path d="M218 168C255 144 298 140 349 152" stroke="#742216" stroke-width="7" stroke-linecap="round"/>
    <path d="M281 56C261 93 257 138 264 207" stroke="#742216" stroke-width="7" stroke-linecap="round"/>
    <path d="M300 58C330 93 348 120 355 167" stroke="#742216" stroke-width="7" stroke-linecap="round"/>
    <path d="M238 76C260 86 281 101 300 123" stroke="#742216" stroke-width="7" stroke-linecap="round"/>
    <path d="M331 92C314 102 301 114 289 132" stroke="#742216" stroke-width="7" stroke-linecap="round"/>
  </g>

  <text x="280" y="300" text-anchor="middle" fill="white" font-family="Inter, Arial, sans-serif" font-size="82" font-weight="900" letter-spacing="-2">ABL</text>
  <text x="280" y="358" text-anchor="middle" fill="white" font-family="Inter, Arial, sans-serif" font-size="34" font-weight="700">Azərbaycan</text>
  <text x="280" y="400" text-anchor="middle" fill="white" font-family="Inter, Arial, sans-serif" font-size="34" font-weight="700">Basketbol Liqası</text>
</svg>
